Coordinates
version=1
nRows=24
nColumns=24
inDegrees=yes

Units are S.I. units (second, meters, Newtons, ...)
Angles are in degrees.

endheader
time	pelvis_tilt	pelvis_list	pelvis_rotation	pelvis_tx	pelvis_ty	pelvis_tz	hip_flexion_r	hip_adduction_r	hip_rotation_r	knee_angle_r	ankle_angle_r	subtalar_angle_r	mtp_angle_r	hip_flexion_l	hip_adduction_l	hip_rotation_l	knee_angle_l	ankle_angle_l	subtalar_angle_l	mtp_angle_l	lumbar_extension	lumbar_bending	lumbar_rotation
      0.36700000	     -6.05962489	      4.01125620	      0.32923716	     -0.81078522	      1.02370264	      0.26555334	     35.69454424	     -3.07880504	     -0.55918248	     -7.63188305	      8.68996199	     -3.60078496	      8.12514028	    -12.04640985	      5.51171309	      0.64576451	     -5.65189753	     20.54371186	      9.60724107	      2.54779922	     -6.75496267	     -4.52919274	     -3.01541669
      0.37116667	     -6.07588467	      3.98572500	      0.45588536	     -0.80449028	      1.02277366	      0.26567700	     35.61753257	     -3.05736512	     -0.34249090	     -7.91090627	      8.57801755	     -3.87037969	      8.12360237	    -12.16085693	      5.42157853	      0.63150321	     -6.15936693	     20.66602863	      9.85642850	      2.59607820	     -6.69160599	     -4.38620231	     -3.02005661
      0.37533333	     -6.11109870	      3.94985118	      0.57906109	     -0.79812850	      1.02185026	      0.26581338	     35.55962822	     -3.02331429	     -0.14488108	     -8.23236661	      8.43914117	     -4.12998484	      8.12713279	    -12.24556804	      5.31716502	      0.59174604	     -6.69395826	     20.77893065	     10.14528782	      2.67820821	     -6.59489383	     -4.23055651	     -3.00200429
      0.37950000	     -6.12789429	      3.90201111	      0.69864809	     -0.79173194	      1.02099675	      0.26596058	     35.47623504	     -2.97611923	      0.04209279	     -8.57851918	      8.25685558	     -4.41171050	      8.13619663	    -12.33448570	      5.19586579	      0.52194671	     -7.26099710	     20.87969427	     10.47220042	      2.79346971	     -6.52041447	     -4.05676907	     -2.98873298
      0.38366667	     -6.13834298	      3.84829496	      0.80943019	     -0.78530541	      1.02019171	      0.26613367	     35.38729476	     -2.91797238	      0.21739995	     -8.95610122	      8.03738276	     -4.69493580	      8.15402273	    -12.42315466	      5.06623166	      0.44833507	     -7.84065280	     20.94955235	     10.79561376	      2.95472277	     -6.45175867	     -3.87496406	     -2.96103217
      0.38783333	     -6.16306071	      3.78755043	      0.92025208	     -0.77883959	      1.01941755	      0.26631777	     35.31146129	     -2.85269520	      0.37784878	     -9.35777424	      7.76170955	     -4.99316787	      8.17856192	    -12.47845479	      4.92622191	      0.37118471	     -8.45852491	     20.99680625	     11.12014157	      3.15636689	     -6.35843880	     -3.68387111	     -2.93891057
      0.39200000	     -6.18340739	      3.71266465	      1.03096800	     -0.77234017	      1.01870888	      0.26650692	     35.22832781	     -2.77500024	      0.50742285	     -9.77709676	      7.43252879	     -5.30036310	      8.20576513	    -12.52429051	      4.76870428	      0.29893934	     -9.10623589	     21.00768890	     11.42151659	      3.37743125	     -6.26500130	     -3.46915749	     -2.90763893
      0.39616667	     -6.18790160	      3.64446847	      1.13451078	     -0.76585159	      1.01807153	      0.26672526	     35.13680732	     -2.69996494	      0.63010299	    -10.22491359	      7.04625902	     -5.60571847	      8.25322558	    -12.56557626	      4.61294285	      0.18164579	     -9.79136771	     21.00718860	     11.80756138	      3.73796572	     -6.20811242	     -3.28140884	     -2.86747080
      0.40033333	     -6.22855987	      3.54161522	      1.23055730	     -0.75926324	      1.01743460	      0.26694629	     35.07857590	     -2.58946540	      0.72598115	    -10.68669646	      6.63182377	     -5.93654229	      8.28553254	    -12.56785661	      4.42495667	      0.10182522	    -10.48339638	     20.95260404	     12.07018293	      4.02233845	     -6.07176262	     -3.01940261	     -2.82471938
      0.40450000	     -6.19771133	      3.42789778	      1.32685421	     -0.75270518	      1.01697088	      0.26716862	     34.96080714	     -2.47909010	      0.71026835	    -11.19003787	      6.22227255	     -6.08139060	      8.46661608	    -12.59781767	      4.20736200	     -0.12497991	    -11.26626025	     20.89969945	     12.58096756	      5.38552780	     -6.06006574	     -2.75606177	     -2.73973416
      0.40866667	     -6.26400831	      3.34010163	      1.40936903	     -0.74611608	      1.01641327	      0.26745591	     34.94999510	     -2.37346033	      0.81847350	    -11.70257951	      5.69136520	     -6.50478290	      8.47200057	    -12.55610277	      4.04347605	     -0.09072925	    -11.97928014	     20.72293768	     12.64801988	      5.57541156	     -5.88867030	     -2.52369724	     -2.71797929
      0.41283333	     -6.27211003	      3.21378912	      1.48520816	     -0.73950722	      1.01601237	      0.26774498	     34.88002164	     -2.23618019	      0.84942422	    -12.23151796	      5.16410362	     -6.83559414	      8.48216362	    -12.52317355	      3.82027464	     -0.24715230	    -12.79895675	     20.57199590	     12.98033861	      5.85952530	     -5.80538127	     -2.24288944	     -2.64425703
      0.41700000	     -6.29784380	      3.08675457	      1.55836376	     -0.73288441	      1.01564286	      0.26804314	     34.84448888	     -2.10116719	      0.85477112	    -12.80176689	      4.64607230	     -7.10935131	      8.48934100	    -12.45205443	      3.59639640	     -0.38757665	    -13.65227698	     20.37719223	     13.29344813	      6.19470809	     -5.69407871	     -1.95901523	     -2.57135385
      0.42116667	     -6.29864552	      2.97283933	      1.61944535	     -0.72629119	      1.01535924	      0.26837622	     34.81657555	     -1.98076002	      0.79230577	    -13.44047874	      4.16280556	     -7.24034619	      8.58717685	    -12.38344820	      3.38182469	     -0.55675268	    -14.53381800	     20.07229344	     13.60681901	      9.69147487	     -5.63958547	     -1.70715241	     -2.49009590
      0.42533333	     -6.30014356	      2.83022936	      1.66364087	     -0.71965241	      1.01516020	      0.26874977	     34.77298844	     -1.81794649	      0.80074981	    -14.05273374	      3.63189720	     -7.55891728	      8.56748017	    -12.30865486	      3.14508504	     -0.67340476	    -15.42973397	     19.73707240	     13.82490919	      9.78442307	     -5.55780545	     -1.40243114	     -2.40511314
      0.42950000	     -6.30009816	      2.68270339	      1.70208323	     -0.71302042	      1.01500604	      0.26914271	     34.75370984	     -1.65524107	      0.74920246	    -14.72561367	      3.17200074	     -7.74806401	      8.54010913	    -12.19210648	      2.89385473	     -0.86016630	    -16.40751493	     19.40740063	     14.13552325	      9.96898474	     -5.48478055	     -1.09551829	     -2.30679051
      0.43366667	     -6.31360801	      2.52108226	      1.73885576	     -0.70636288	      1.01490268	      0.26953748	     34.75151570	     -1.48292434	      0.67694264	    -15.41328485	      2.75982643	     -7.89532914	      8.50877362	    -12.03870182	      2.62893530	     -1.02719677	    -17.42224889	     19.02905490	     14.36226631	     10.17817082	     -5.39045869	     -0.76490438	     -2.19705231
      0.43783333	     -6.28878729	      2.35764595	      1.74902948	     -0.69973329	      1.01488585	      0.27000480	     34.72945243	     -1.29533315	      0.60810218	    -16.14331575	      2.37398192	     -8.03561761	      8.45763063	    -11.89240540	      2.35001335	     -1.28881730	    -18.49588277	     18.59693104	     14.73024199	     10.53487381	     -5.35501003	     -0.44265832	     -2.07392463
      0.44200000	     -6.24830878	      2.19800458	      1.76239388	     -0.69310302	      1.01499006	      0.27046963	     34.68884900	     -1.11690356	      0.52983348	    -16.87874807	      2.02981397	     -8.14771539	      7.96753348	    -11.74542405	      2.08181067	     -1.46171468	    -19.57427886	     17.99676082	     14.89202908	     14.20922748	     -5.33727611	     -0.12729002	     -1.97862071
      0.44616667	     -6.22345883	      2.02876538	      1.75708431	     -0.68646200	      1.01507984	      0.27095382	     34.68189602	     -0.92763294	      0.41715885	    -17.65329311	      1.79396894	     -8.13374862	      7.95430110	    -11.54693079	      1.79988133	     -1.69111991	    -20.73265144	     17.44899610	     15.12094297	     14.27533753	     -5.29463143	      0.21454125	     -1.83920406
      0.45033333	     -6.18883584	      1.84939546	      1.74464045	     -0.67983063	      1.01525356	      0.27147823	     34.65491671	     -0.72263773	      0.32481309	    -18.41138144	      1.56234282	     -8.16274050	      7.92811339	    -11.32384920	      1.49696244	     -1.95420754	    -21.94286351	     16.84405845	     15.38671381	     14.40129359	     -5.26799387	      0.55774923	     -1.70775173
      0.45450000	     -6.13290757	      1.66928628	      1.71896666	     -0.67322363	      1.01549001	      0.27203928	     34.60816571	     -0.51166908	      0.22723331	    -19.17773889	      1.38871936	     -8.16270330	      7.88975510	    -11.08973107	      1.18701855	     -2.23515247	    -23.20907383	     16.18896580	     15.65816733	     14.59223750	     -5.27439133	      0.90179707	     -1.56676541
      0.45866667	     -6.06454962	      1.49122410	      1.68369258	     -0.66664144	      1.01579752	      0.27263478	     34.53923850	     -0.29376560	      0.15713538	    -19.92661532	      1.21785206	     -8.22156984	      7.27363087	    -10.84554362	      0.87435573	     -2.51360252	    -24.49201312	     15.40260639	     15.87724342	     17.68160801	     -5.30082347	      1.23496436	     -1.42280421
      0.46283333	     -5.99184782	      1.30634406	      1.63954397	     -0.66006405	      1.01614273	      0.27322434	     34.45997699	     -0.07459717	      0.04338474	    -20.66841813	      1.18640402	     -8.10598573	      7.26538110	    -10.56663858	      0.55120126	     -2.80949322	    -25.85360900	     14.63777962	     16.07087142	     17.73576296	     -5.32848217	      1.59326022	     -1.28667714
